<svg width="173" height="33" viewBox="0 0 173 33" fill="none" xmlns="http://www.w3.org/2000/svg">
<path d="M39.998 13.08C39.1113 13.08 38.3507 12.9353 37.716 12.646C37.0907 12.3567 36.6007 11.932 36.246 11.372C35.9007 10.812 35.7093 10.1167 35.672 9.286C35.6627 8.90333 35.658 8.49267 35.658 8.054C35.658 7.61533 35.6627 7.19533 35.672 6.794C35.7093 5.982 35.9053 5.296 36.26 4.736C36.6147 4.16667 37.1093 3.73733 37.744 3.448C38.3787 3.14933 39.13 3 39.998 3C40.614 3 41.1833 3.07933 41.706 3.238C42.2287 3.38733 42.686 3.61133 43.078 3.91C43.47 4.19933 43.7733 4.554 43.988 4.974C44.212 5.38467 44.3287 5.85133 44.338 6.374C44.3473 6.458 44.3193 6.528 44.254 6.584C44.198 6.64 44.128 6.668 44.044 6.668H42.154C42.0327 6.668 41.9393 6.64467 41.874 6.598C41.8087 6.542 41.7527 6.444 41.706 6.304C41.5753 5.80933 41.3607 5.47333 41.062 5.296C40.7727 5.10933 40.4133 5.016 39.984 5.016C39.4707 5.016 39.0647 5.16067 38.766 5.45C38.4673 5.73 38.304 6.20133 38.276 6.864C38.248 7.62933 38.248 8.41333 38.276 9.216C38.304 9.87867 38.4673 10.3547 38.766 10.644C39.0647 10.924 39.4707 11.064 39.984 11.064C40.4133 11.064 40.7773 10.9707 41.076 10.784C41.3747 10.5973 41.5847 10.2613 41.706 9.776C41.7433 9.636 41.7947 9.54267 41.86 9.496C41.9347 9.44 42.0327 9.412 42.154 9.412H44.044C44.128 9.412 44.198 9.44 44.254 9.496C44.3193 9.552 44.3473 9.622 44.338 9.706C44.3287 10.2287 44.212 10.7 43.988 11.12C43.7733 11.5307 43.47 11.8853 43.078 12.184C42.686 12.4733 42.2287 12.6973 41.706 12.856C41.1833 13.0053 40.614 13.08 39.998 13.08Z" fill="#242322"/>
<path d="M45.127 12.94C45.0524 12.94 44.9824 12.912 44.917 12.856C44.861 12.7907 44.833 12.7207 44.833 12.646C44.833 12.5993 44.8377 12.5573 44.847 12.52L48.137 3.532C48.165 3.42933 48.221 3.34067 48.305 3.266C48.3984 3.182 48.5244 3.14 48.683 3.14H50.755C50.9137 3.14 51.035 3.182 51.119 3.266C51.2124 3.34067 51.273 3.42933 51.301 3.532L54.577 12.52C54.5957 12.5573 54.605 12.5993 54.605 12.646C54.605 12.7207 54.5724 12.7907 54.507 12.856C54.451 12.912 54.381 12.94 54.297 12.94H52.575C52.435 12.94 52.3277 12.9073 52.253 12.842C52.1877 12.7673 52.1457 12.702 52.127 12.646L51.581 11.218H47.843L47.311 12.646C47.2924 12.702 47.2504 12.7673 47.185 12.842C47.1197 12.9073 47.0077 12.94 46.849 12.94H45.127ZM48.417 9.202H51.021L49.705 5.506L48.417 9.202Z" fill="#242322"/>
<path d="M57.2165 12.94C57.1138 12.94 57.0298 12.9073 56.9645 12.842C56.8991 12.7767 56.8665 12.6927 56.8665 12.59V5.338H54.3745C54.2718 5.338 54.1878 5.30533 54.1225 5.24C54.0571 5.16533 54.0245 5.08133 54.0245 4.988V3.49C54.0245 3.38733 54.0571 3.30333 54.1225 3.238C54.1878 3.17267 54.2718 3.14 54.3745 3.14H61.9065C62.0091 3.14 62.0931 3.17267 62.1585 3.238C62.2238 3.30333 62.2565 3.38733 62.2565 3.49V4.988C62.2565 5.08133 62.2238 5.16533 62.1585 5.24C62.0931 5.30533 62.0091 5.338 61.9065 5.338H59.4145V12.59C59.4145 12.6927 59.3818 12.7767 59.3165 12.842C59.2511 12.9073 59.1671 12.94 59.0645 12.94H57.2165Z" fill="#242322"/>
<path d="M61.9708 12.94C61.8961 12.94 61.8261 12.912 61.7608 12.856C61.7048 12.7907 61.6768 12.7207 61.6768 12.646C61.6768 12.5993 61.6815 12.5573 61.6908 12.52L64.9808 3.532C65.0088 3.42933 65.0648 3.34067 65.1488 3.266C65.2421 3.182 65.3681 3.14 65.5268 3.14H67.5988C67.7575 3.14 67.8788 3.182 67.9628 3.266C68.0561 3.34067 68.1168 3.42933 68.1448 3.532L71.4208 12.52C71.4395 12.5573 71.4488 12.5993 71.4488 12.646C71.4488 12.7207 71.4161 12.7907 71.3508 12.856C71.2948 12.912 71.2248 12.94 71.1408 12.94H69.4188C69.2788 12.94 69.1715 12.9073 69.0968 12.842C69.0315 12.7673 68.9895 12.702 68.9708 12.646L68.4248 11.218H64.6868L64.1548 12.646C64.1361 12.702 64.0941 12.7673 64.0288 12.842C63.9635 12.9073 63.8515 12.94 63.6928 12.94H61.9708ZM65.2608 9.202H67.8648L66.5488 5.506L65.2608 9.202Z" fill="#242322"/>
<path d="M72.9023 12.94C72.7996 12.94 72.7156 12.9073 72.6503 12.842C72.5849 12.7767 72.5523 12.6927 72.5523 12.59V3.49C72.5523 3.38733 72.5849 3.30333 72.6503 3.238C72.7156 3.17267 72.7996 3.14 72.9023 3.14H74.7503C74.8436 3.14 74.9229 3.17267 74.9883 3.238C75.0629 3.30333 75.1003 3.38733 75.1003 3.49V10.826H79.3283C79.4309 10.826 79.5149 10.8633 79.5803 10.938C79.6549 11.0033 79.6923 11.0873 79.6923 11.19V12.59C79.6923 12.6927 79.6549 12.7767 79.5803 12.842C79.5149 12.9073 79.4309 12.94 79.3283 12.94H72.9023Z" fill="#242322"/>
<path d="M84.8004 13.08C83.9417 13.08 83.1951 12.94 82.5604 12.66C81.9257 12.38 81.4311 11.96 81.0764 11.4C80.7217 10.8307 80.5257 10.1213 80.4884 9.272C80.4791 8.87067 80.4744 8.46933 80.4744 8.068C80.4744 7.66667 80.4791 7.26067 80.4884 6.85C80.5257 6.01 80.7217 5.30533 81.0764 4.736C81.4404 4.15733 81.9397 3.72333 82.5744 3.434C83.2091 3.14467 83.9511 3 84.8004 3C85.6404 3 86.3777 3.14467 87.0124 3.434C87.6564 3.72333 88.1604 4.15733 88.5244 4.736C88.8884 5.30533 89.0844 6.01 89.1124 6.85C89.1311 7.26067 89.1404 7.66667 89.1404 8.068C89.1404 8.46933 89.1311 8.87067 89.1124 9.272C89.0751 10.1213 88.8791 10.8307 88.5244 11.4C88.1697 11.96 87.6751 12.38 87.0404 12.66C86.4057 12.94 85.6591 13.08 84.8004 13.08ZM84.8004 11.064C85.2951 11.064 85.6964 10.9147 86.0044 10.616C86.3217 10.3173 86.4897 9.84133 86.5084 9.188C86.5271 8.77733 86.5364 8.39 86.5364 8.026C86.5364 7.662 86.5271 7.284 86.5084 6.892C86.4897 6.45333 86.4057 6.09867 86.2564 5.828C86.1164 5.548 85.9204 5.34267 85.6684 5.212C85.4164 5.08133 85.1271 5.016 84.8004 5.016C84.4831 5.016 84.1984 5.08133 83.9464 5.212C83.6944 5.34267 83.4937 5.548 83.3444 5.828C83.1951 6.09867 83.1111 6.45333 83.0924 6.892C83.0831 7.284 83.0784 7.662 83.0784 8.026C83.0784 8.39 83.0831 8.77733 83.0924 9.188C83.1204 9.84133 83.2884 10.3173 83.5964 10.616C83.9044 10.9147 84.3057 11.064 84.8004 11.064Z" fill="#242322"/>
<path d="M91.1132 12.94C91.0105 12.94 90.9265 12.9073 90.8612 12.842C90.7959 12.7767 90.7632 12.6927 90.7632 12.59V3.49C90.7632 3.38733 90.7959 3.30333 90.8612 3.238C90.9265 3.17267 91.0105 3.14 91.1132 3.14H92.5972C92.7559 3.14 92.8679 3.17733 92.9332 3.252C93.0079 3.31733 93.0545 3.36867 93.0732 3.406L96.4892 8.796V3.49C96.4892 3.38733 96.5219 3.30333 96.5872 3.238C96.6525 3.17267 96.7365 3.14 96.8392 3.14H98.5192C98.6219 3.14 98.7059 3.17267 98.7712 3.238C98.8365 3.30333 98.8692 3.38733 98.8692 3.49V12.59C98.8692 12.6833 98.8365 12.7673 98.7712 12.842C98.7059 12.9073 98.6219 12.94 98.5192 12.94H97.0212C96.8719 12.94 96.7599 12.9027 96.6852 12.828C96.6199 12.7533 96.5779 12.702 96.5592 12.674L93.1432 7.494V12.59C93.1432 12.6927 93.1105 12.7767 93.0452 12.842C92.9799 12.9073 92.8959 12.94 92.7932 12.94H91.1132Z" fill="#242322"/>
<path d="M101.176 12.94C101.073 12.94 100.989 12.9073 100.924 12.842C100.858 12.7767 100.826 12.6927 100.826 12.59V3.49C100.826 3.38733 100.858 3.30333 100.924 3.238C100.989 3.17267 101.073 3.14 101.176 3.14H103.052C103.154 3.14 103.238 3.17267 103.304 3.238C103.369 3.30333 103.402 3.38733 103.402 3.49V12.59C103.402 12.6927 103.369 12.7767 103.304 12.842C103.238 12.9073 103.154 12.94 103.052 12.94H101.176Z" fill="#242322"/>
<path d="M104.805 12.94C104.73 12.94 104.66 12.912 104.595 12.856C104.539 12.7907 104.511 12.7207 104.511 12.646C104.511 12.5993 104.515 12.5573 104.525 12.52L107.815 3.532C107.843 3.42933 107.899 3.34067 107.983 3.266C108.076 3.182 108.202 3.14 108.361 3.14H110.433C110.591 3.14 110.713 3.182 110.797 3.266C110.89 3.34067 110.951 3.42933 110.979 3.532L114.255 12.52C114.273 12.5573 114.283 12.5993 114.283 12.646C114.283 12.7207 114.25 12.7907 114.185 12.856C114.129 12.912 114.059 12.94 113.975 12.94H112.253C112.113 12.94 112.005 12.9073 111.931 12.842C111.865 12.7673 111.823 12.702 111.805 12.646L111.259 11.218H107.521L106.989 12.646C106.97 12.702 106.928 12.7673 106.863 12.842C106.797 12.9073 106.685 12.94 106.527 12.94H104.805ZM108.095 9.202H110.699L109.383 5.506L108.095 9.202Z" fill="#242322"/>
<path d="M36.33 29.94C36.2273 29.94 36.1433 29.9073 36.078 29.842C36.0127 29.7767 35.98 29.6927 35.98 29.59V20.49C35.98 20.3873 36.0127 20.3033 36.078 20.238C36.1433 20.1727 36.2273 20.14 36.33 20.14H39.97C40.8847 20.14 41.664 20.2893 42.308 20.588C42.952 20.8773 43.4467 21.3067 43.792 21.876C44.1373 22.436 44.324 23.1313 44.352 23.962C44.3613 24.3727 44.366 24.732 44.366 25.04C44.366 25.348 44.3613 25.7027 44.352 26.104C44.3147 26.972 44.128 27.6907 43.792 28.26C43.4653 28.8293 42.9847 29.254 42.35 29.534C41.7247 29.8047 40.9547 29.94 40.04 29.94H36.33ZM38.486 27.924H39.97C40.3713 27.924 40.7027 27.8633 40.964 27.742C41.2347 27.6113 41.4353 27.4107 41.566 27.14C41.706 26.8693 41.7807 26.5147 41.79 26.076C41.8087 25.8053 41.818 25.5627 41.818 25.348C41.8273 25.1333 41.8273 24.9187 41.818 24.704C41.818 24.4893 41.8087 24.2513 41.79 23.99C41.7713 23.3553 41.6033 22.8933 41.286 22.604C40.978 22.3053 40.516 22.156 39.9 22.156H38.486V27.924Z" fill="#242322"/>
<path d="M46.3515 29.94C46.2488 29.94 46.1648 29.9073 46.0995 29.842C46.0342 29.7767 46.0015 29.6927 46.0015 29.59V20.49C46.0015 20.3873 46.0342 20.3033 46.0995 20.238C46.1648 20.1727 46.2488 20.14 46.3515 20.14H50.1595C51.3635 20.14 52.3108 20.42 53.0015 20.98C53.7015 21.5307 54.0515 22.3147 54.0515 23.332C54.0515 23.9947 53.8882 24.5547 53.5615 25.012C53.2442 25.4693 52.8242 25.8147 52.3015 26.048L54.2335 29.492C54.2615 29.548 54.2755 29.5993 54.2755 29.646C54.2755 29.7207 54.2428 29.7907 54.1775 29.856C54.1215 29.912 54.0515 29.94 53.9675 29.94H52.1195C51.9422 29.94 51.8115 29.898 51.7275 29.814C51.6435 29.7207 51.5828 29.6367 51.5455 29.562L49.9495 26.482H48.5075V29.59C48.5075 29.6927 48.4748 29.7767 48.4095 29.842C48.3442 29.9073 48.2602 29.94 48.1575 29.94H46.3515ZM48.5075 24.508H50.1315C50.5702 24.508 50.8968 24.4007 51.1115 24.186C51.3355 23.9713 51.4475 23.6773 51.4475 23.304C51.4475 22.94 51.3402 22.646 51.1255 22.422C50.9202 22.198 50.5888 22.086 50.1315 22.086H48.5075V24.508Z" fill="#242322"/>
<path d="M59.6442 30.08C58.7855 30.08 58.0388 29.94 57.4042 29.66C56.7695 29.38 56.2748 28.96 55.9202 28.4C55.5655 27.8307 55.3695 27.1213 55.3322 26.272C55.3228 25.8707 55.3182 25.4693 55.3182 25.068C55.3182 24.6667 55.3228 24.2607 55.3322 23.85C55.3695 23.01 55.5655 22.3053 55.9202 21.736C56.2842 21.1573 56.7835 20.7233 57.4182 20.434C58.0528 20.1447 58.7948 20 59.6442 20C60.4842 20 61.2215 20.1447 61.8562 20.434C62.5002 20.7233 63.0042 21.1573 63.3682 21.736C63.7322 22.3053 63.9282 23.01 63.9562 23.85C63.9748 24.2607 63.9842 24.6667 63.9842 25.068C63.9842 25.4693 63.9748 25.8707 63.9562 26.272C63.9188 27.1213 63.7228 27.8307 63.3682 28.4C63.0135 28.96 62.5188 29.38 61.8842 29.66C61.2495 29.94 60.5028 30.08 59.6442 30.08ZM59.6442 28.064C60.1388 28.064 60.5402 27.9147 60.8482 27.616C61.1655 27.3173 61.3335 26.8413 61.3522 26.188C61.3708 25.7773 61.3802 25.39 61.3802 25.026C61.3802 24.662 61.3708 24.284 61.3522 23.892C61.3335 23.4533 61.2495 23.0987 61.1002 22.828C60.9602 22.548 60.7642 22.3427 60.5122 22.212C60.2602 22.0813 59.9708 22.016 59.6442 22.016C59.3268 22.016 59.0422 22.0813 58.7902 22.212C58.5382 22.3427 58.3375 22.548 58.1882 22.828C58.0388 23.0987 57.9548 23.4533 57.9362 23.892C57.9268 24.284 57.9222 24.662 57.9222 25.026C57.9222 25.39 57.9268 25.7773 57.9362 26.188C57.9642 26.8413 58.1322 27.3173 58.4402 27.616C58.7482 27.9147 59.1495 28.064 59.6442 28.064Z" fill="#242322"/>
<path d="M69.709 30.08C68.869 30.08 68.1316 29.9447 67.497 29.674C66.8716 29.394 66.3863 28.9693 66.041 28.4C65.6956 27.8213 65.523 27.0887 65.523 26.202V20.49C65.523 20.3873 65.5556 20.3033 65.621 20.238C65.6863 20.1727 65.7703 20.14 65.873 20.14H67.679C67.7816 20.14 67.8656 20.1727 67.931 20.238C67.9963 20.3033 68.029 20.3873 68.029 20.49V26.188C68.029 26.7947 68.1736 27.252 68.463 27.56C68.7616 27.8587 69.177 28.008 69.709 28.008C70.2316 28.008 70.6376 27.8587 70.927 27.56C71.2256 27.252 71.375 26.7947 71.375 26.188V20.49C71.375 20.3873 71.4076 20.3033 71.473 20.238C71.5476 20.1727 71.6316 20.14 71.725 20.14H73.545C73.6383 20.14 73.7176 20.1727 73.783 20.238C73.8576 20.3033 73.895 20.3873 73.895 20.49V26.202C73.895 27.0887 73.7223 27.8213 73.377 28.4C73.0316 28.9693 72.5463 29.394 71.921 29.674C71.2956 29.9447 70.5583 30.08 69.709 30.08Z" fill="#242322"/>
<path d="M79.7975 30.08C78.9108 30.08 78.1455 29.9353 77.5015 29.646C76.8668 29.3473 76.3722 28.918 76.0175 28.358C75.6722 27.7887 75.4808 27.098 75.4435 26.286C75.4342 25.8847 75.4295 25.46 75.4295 25.012C75.4295 24.5547 75.4342 24.1207 75.4435 23.71C75.4808 22.9167 75.6768 22.2447 76.0315 21.694C76.3862 21.1433 76.8855 20.7233 77.5295 20.434C78.1735 20.1447 78.9295 20 79.7975 20C80.4975 20 81.1182 20.0887 81.6595 20.266C82.2008 20.434 82.6535 20.6627 83.0175 20.952C83.3908 21.2413 83.6708 21.5587 83.8575 21.904C84.0535 22.2493 84.1562 22.59 84.1655 22.926C84.1748 23.01 84.1468 23.08 84.0815 23.136C84.0255 23.192 83.9555 23.22 83.8715 23.22H81.8275C81.7248 23.22 81.6455 23.206 81.5895 23.178C81.5428 23.1407 81.5008 23.0893 81.4635 23.024C81.3982 22.884 81.3002 22.7393 81.1695 22.59C81.0482 22.4313 80.8755 22.296 80.6515 22.184C80.4368 22.072 80.1522 22.016 79.7975 22.016C79.2655 22.016 78.8455 22.156 78.5375 22.436C78.2388 22.716 78.0755 23.164 78.0475 23.78C78.0195 24.5827 78.0195 25.3947 78.0475 26.216C78.0755 26.8693 78.2482 27.3407 78.5655 27.63C78.8828 27.9193 79.3028 28.064 79.8255 28.064C80.1802 28.064 80.4928 28.0033 80.7635 27.882C81.0435 27.7607 81.2628 27.574 81.4215 27.322C81.5802 27.0607 81.6595 26.7293 81.6595 26.328V26.062H80.3435C80.2408 26.062 80.1522 26.0293 80.0775 25.964C80.0122 25.8893 79.9795 25.8007 79.9795 25.698V24.662C79.9795 24.5593 80.0122 24.4753 80.0775 24.41C80.1522 24.3353 80.2408 24.298 80.3435 24.298H83.8715C83.9742 24.298 84.0582 24.3353 84.1235 24.41C84.1888 24.4753 84.2215 24.5593 84.2215 24.662V26.258C84.2215 27.0607 84.0395 27.7467 83.6755 28.316C83.3115 28.8853 82.7935 29.324 82.1215 29.632C81.4588 29.9307 80.6842 30.08 79.7975 30.08Z" fill="#242322"/>
<path d="M86.1777 29.94C86.075 29.94 85.991 29.9073 85.9257 29.842C85.8603 29.7767 85.8277 29.6927 85.8277 29.59V20.49C85.8277 20.3873 85.8603 20.3033 85.9257 20.238C85.991 20.1727 86.075 20.14 86.1777 20.14H87.9837C88.0863 20.14 88.1703 20.1727 88.2357 20.238C88.301 20.3033 88.3337 20.3873 88.3337 20.49V23.864H91.7917V20.49C91.7917 20.3873 91.8243 20.3033 91.8897 20.238C91.955 20.1727 92.039 20.14 92.1417 20.14H93.9477C94.0503 20.14 94.1343 20.1727 94.1997 20.238C94.265 20.3033 94.2977 20.3873 94.2977 20.49V29.59C94.2977 29.6927 94.265 29.7767 94.1997 29.842C94.1343 29.9073 94.0503 29.94 93.9477 29.94H92.1417C92.039 29.94 91.955 29.9073 91.8897 29.842C91.8243 29.7767 91.7917 29.6927 91.7917 29.59V26.104H88.3337V29.59C88.3337 29.6927 88.301 29.7767 88.2357 29.842C88.1703 29.9073 88.0863 29.94 87.9837 29.94H86.1777Z" fill="#242322"/>
<path d="M98.7653 29.94C98.6626 29.94 98.5786 29.9073 98.5133 29.842C98.448 29.7767 98.4153 29.6927 98.4153 29.59V22.338H95.9233C95.8206 22.338 95.7366 22.3053 95.6713 22.24C95.606 22.1653 95.5733 22.0813 95.5733 21.988V20.49C95.5733 20.3873 95.606 20.3033 95.6713 20.238C95.7366 20.1727 95.8206 20.14 95.9233 20.14H103.455C103.558 20.14 103.642 20.1727 103.707 20.238C103.773 20.3033 103.805 20.3873 103.805 20.49V21.988C103.805 22.0813 103.773 22.1653 103.707 22.24C103.642 22.3053 103.558 22.338 103.455 22.338H100.963V29.59C100.963 29.6927 100.931 29.7767 100.865 29.842C100.8 29.9073 100.716 29.94 100.613 29.94H98.7653Z" fill="#242322"/>
<path d="M108.08 29.94C107.987 29.94 107.903 29.9073 107.828 29.842C107.763 29.7767 107.73 29.6927 107.73 29.59V20.49C107.73 20.3873 107.763 20.3033 107.828 20.238C107.903 20.1727 107.987 20.14 108.08 20.14H109.592C109.741 20.14 109.853 20.182 109.928 20.266C110.012 20.3407 110.063 20.4013 110.082 20.448L112.546 24.872L115.01 20.448C115.038 20.4013 115.085 20.3407 115.15 20.266C115.225 20.182 115.341 20.14 115.5 20.14H116.998C117.101 20.14 117.185 20.1727 117.25 20.238C117.325 20.3033 117.362 20.3873 117.362 20.49V29.59C117.362 29.6927 117.325 29.7767 117.25 29.842C117.185 29.9073 117.101 29.94 116.998 29.94H115.332C115.229 29.94 115.141 29.9073 115.066 29.842C115.001 29.7767 114.968 29.6927 114.968 29.59V24.34L113.386 27.266C113.349 27.35 113.293 27.4247 113.218 27.49C113.143 27.5553 113.041 27.588 112.91 27.588H112.182C112.051 27.588 111.949 27.5553 111.874 27.49C111.799 27.4247 111.739 27.35 111.692 27.266L110.11 24.34V29.59C110.11 29.6927 110.077 29.7767 110.012 29.842C109.947 29.9073 109.863 29.94 109.76 29.94H108.08Z" fill="#242322"/>
<path d="M123.314 30.08C122.455 30.08 121.709 29.94 121.074 29.66C120.439 29.38 119.945 28.96 119.59 28.4C119.235 27.8307 119.039 27.1213 119.002 26.272C118.993 25.8707 118.988 25.4693 118.988 25.068C118.988 24.6667 118.993 24.2607 119.002 23.85C119.039 23.01 119.235 22.3053 119.59 21.736C119.954 21.1573 120.453 20.7233 121.088 20.434C121.723 20.1447 122.465 20 123.314 20C124.154 20 124.891 20.1447 125.526 20.434C126.17 20.7233 126.674 21.1573 127.038 21.736C127.402 22.3053 127.598 23.01 127.626 23.85C127.645 24.2607 127.654 24.6667 127.654 25.068C127.654 25.4693 127.645 25.8707 127.626 26.272C127.589 27.1213 127.393 27.8307 127.038 28.4C126.683 28.96 126.189 29.38 125.554 29.66C124.919 29.94 124.173 30.08 123.314 30.08ZM123.314 28.064C123.809 28.064 124.21 27.9147 124.518 27.616C124.835 27.3173 125.003 26.8413 125.022 26.188C125.041 25.7773 125.05 25.39 125.05 25.026C125.05 24.662 125.041 24.284 125.022 23.892C125.003 23.4533 124.919 23.0987 124.77 22.828C124.63 22.548 124.434 22.3427 124.182 22.212C123.93 22.0813 123.641 22.016 123.314 22.016C122.997 22.016 122.712 22.0813 122.46 22.212C122.208 22.3427 122.007 22.548 121.858 22.828C121.709 23.0987 121.625 23.4533 121.606 23.892C121.597 24.284 121.592 24.662 121.592 25.026C121.592 25.39 121.597 25.7773 121.606 26.188C121.634 26.8413 121.802 27.3173 122.11 27.616C122.418 27.9147 122.819 28.064 123.314 28.064Z" fill="#242322"/>
<path d="M129.627 29.94C129.524 29.94 129.44 29.9073 129.375 29.842C129.31 29.7767 129.277 29.6927 129.277 29.59V20.49C129.277 20.3873 129.31 20.3033 129.375 20.238C129.44 20.1727 129.524 20.14 129.627 20.14H131.111C131.27 20.14 131.382 20.1773 131.447 20.252C131.522 20.3173 131.568 20.3687 131.587 20.406L135.003 25.796V20.49C135.003 20.3873 135.036 20.3033 135.101 20.238C135.166 20.1727 135.25 20.14 135.353 20.14H137.033C137.136 20.14 137.22 20.1727 137.285 20.238C137.35 20.3033 137.383 20.3873 137.383 20.49V29.59C137.383 29.6833 137.35 29.7673 137.285 29.842C137.22 29.9073 137.136 29.94 137.033 29.94H135.535C135.386 29.94 135.274 29.9027 135.199 29.828C135.134 29.7533 135.092 29.702 135.073 29.674L131.657 24.494V29.59C131.657 29.6927 131.624 29.7767 131.559 29.842C131.494 29.9073 131.41 29.94 131.307 29.94H129.627Z" fill="#242322"/>
<path d="M139.689 29.94C139.587 29.94 139.503 29.9073 139.437 29.842C139.372 29.7767 139.339 29.6927 139.339 29.59V20.49C139.339 20.3873 139.372 20.3033 139.437 20.238C139.503 20.1727 139.587 20.14 139.689 20.14H141.565C141.668 20.14 141.752 20.1727 141.817 20.238C141.883 20.3033 141.915 20.3873 141.915 20.49V29.59C141.915 29.6927 141.883 29.7767 141.817 29.842C141.752 29.9073 141.668 29.94 141.565 29.94H139.689Z" fill="#242322"/>
<path d="M146.384 29.94C146.282 29.94 146.198 29.9073 146.132 29.842C146.067 29.7767 146.034 29.6927 146.034 29.59V22.338H143.542C143.44 22.338 143.356 22.3053 143.29 22.24C143.225 22.1653 143.192 22.0813 143.192 21.988V20.49C143.192 20.3873 143.225 20.3033 143.29 20.238C143.356 20.1727 143.44 20.14 143.542 20.14H151.074C151.177 20.14 151.261 20.1727 151.326 20.238C151.392 20.3033 151.424 20.3873 151.424 20.49V21.988C151.424 22.0813 151.392 22.1653 151.326 22.24C151.261 22.3053 151.177 22.338 151.074 22.338H148.582V29.59C148.582 29.6927 148.55 29.7767 148.484 29.842C148.419 29.9073 148.335 29.94 148.232 29.94H146.384Z" fill="#242322"/>
<path d="M156.55 30.08C155.692 30.08 154.945 29.94 154.31 29.66C153.676 29.38 153.181 28.96 152.826 28.4C152.472 27.8307 152.276 27.1213 152.238 26.272C152.229 25.8707 152.224 25.4693 152.224 25.068C152.224 24.6667 152.229 24.2607 152.238 23.85C152.276 23.01 152.472 22.3053 152.826 21.736C153.19 21.1573 153.69 20.7233 154.324 20.434C154.959 20.1447 155.701 20 156.55 20C157.39 20 158.128 20.1447 158.762 20.434C159.406 20.7233 159.91 21.1573 160.274 21.736C160.638 22.3053 160.834 23.01 160.862 23.85C160.881 24.2607 160.89 24.6667 160.89 25.068C160.89 25.4693 160.881 25.8707 160.862 26.272C160.825 27.1213 160.629 27.8307 160.274 28.4C159.92 28.96 159.425 29.38 158.79 29.66C158.156 29.94 157.409 30.08 156.55 30.08ZM156.55 28.064C157.045 28.064 157.446 27.9147 157.754 27.616C158.072 27.3173 158.24 26.8413 158.258 26.188C158.277 25.7773 158.286 25.39 158.286 25.026C158.286 24.662 158.277 24.284 158.258 23.892C158.24 23.4533 158.156 23.0987 158.006 22.828C157.866 22.548 157.67 22.3427 157.418 22.212C157.166 22.0813 156.877 22.016 156.55 22.016C156.233 22.016 155.948 22.0813 155.696 22.212C155.444 22.3427 155.244 22.548 155.094 22.828C154.945 23.0987 154.861 23.4533 154.842 23.892C154.833 24.284 154.828 24.662 154.828 25.026C154.828 25.39 154.833 25.7773 154.842 26.188C154.87 26.8413 155.038 27.3173 155.346 27.616C155.654 27.9147 156.056 28.064 156.55 28.064Z" fill="#242322"/>
<path d="M162.863 29.94C162.761 29.94 162.677 29.9073 162.611 29.842C162.546 29.7767 162.513 29.6927 162.513 29.59V20.49C162.513 20.3873 162.546 20.3033 162.611 20.238C162.677 20.1727 162.761 20.14 162.863 20.14H166.671C167.875 20.14 168.823 20.42 169.513 20.98C170.213 21.5307 170.563 22.3147 170.563 23.332C170.563 23.9947 170.4 24.5547 170.073 25.012C169.756 25.4693 169.336 25.8147 168.813 26.048L170.745 29.492C170.773 29.548 170.787 29.5993 170.787 29.646C170.787 29.7207 170.755 29.7907 170.689 29.856C170.633 29.912 170.563 29.94 170.479 29.94H168.631C168.454 29.94 168.323 29.898 168.239 29.814C168.155 29.7207 168.095 29.6367 168.057 29.562L166.461 26.482H165.019V29.59C165.019 29.6927 164.987 29.7767 164.921 29.842C164.856 29.9073 164.772 29.94 164.669 29.94H162.863ZM165.019 24.508H166.643C167.082 24.508 167.409 24.4007 167.623 24.186C167.847 23.9713 167.959 23.6773 167.959 23.304C167.959 22.94 167.852 22.646 167.637 22.422C167.432 22.198 167.101 22.086 166.643 22.086H165.019V24.508Z" fill="#242322"/>
<path d="M26.255 17.9705H15.3502L22.6126 25.2329C22.8902 25.5105 23.347 25.533 23.6323 25.2641C25.4108 23.5886 26.6342 21.3298 26.9931 18.7908C27.0547 18.356 26.6939 17.9705 26.255 17.9705ZM25.5276 14.9925C25.1489 9.50264 20.7619 5.11569 15.2721 4.73701C14.8529 4.70806 14.5 5.06146 14.5 5.4815V15.7646H24.7835C25.2036 15.7646 25.5565 15.4116 25.5276 14.9925ZM12.2941 17.9705V7.0656C12.2941 6.62672 11.9085 6.26597 11.4743 6.32755C5.9977 7.10144 1.81157 11.8859 2.00643 17.6198C2.2068 23.5086 7.27711 28.3377 13.1687 28.2637C15.4848 28.2347 17.625 27.4884 19.3846 26.2402C19.7477 25.9829 19.7716 25.4484 19.4568 25.1336L12.2941 17.9705Z" fill="#242322"/>
</svg>
